PathFileType	4	(X/Y/Z)	D:\Share\Shared_Data\Ergonomics\Sit To Stand Pertubation\S0\Perturbed STS.trc
DataRate	CameraRate	NumFrames	NumMarkers	Units	OrigDataRate	OrigDataStartFrame	OrigNumFrames	
100	100	11	18	m	100	8723	221
Frame#	Time	R_Heel			R_ASIS			R_Pelvis			V_Sacral			L_Pelvis			L_ASIS			Clavical			R_Acromium			L_Acromium			Sternum			Torso			R_Thigh_Med			R_Thigh_Lat			R_Thigh			R_Shank_Med			R_Shank_Lat			R_Shank			R_Toe			
		X1	Y1	Z1	X2	Y2	Z2	X3	Y3	Z3	X4	Y4	Z4	X5	Y5	Z5	X6	Y6	Z6	X7	Y7	Z7	X8	Y8	Z8	X9	Y9	Z9	X10	Y10	Z10	X11	Y11	Z11	X12	Y12	Z12	X13	Y13	Z13	X14	Y14	Z14	X15	Y15	Z15	X16	Y16	Z16	X17	Y17	Z17	X18	Y18	Z18	

8723	43.57	0.15985675	0.044107845	0.11865636	-0.01638332	0.73594061	0.1310155	-0.14962782	0.72766418	0.17160782	-0.26452881	0.70284418	-0.060347431	-0.11604286	0.71699097	-0.23535782	0.0063056755	0.72550891	-0.18619566	0.13123128	1.0521643	-0.038411072	0.079765701	1.1445803	0.098614143	0.076018997	1.1430349	-0.19038153	0.12287448	0.95492957	-0.051663792	0.11876624	1.0032586	-0.15703342	0.30952399	0.48935962	0.050359272	0.29183618	0.50800543	0.18357635	0.22119427	0.64170508	0.09769883	0.25884476	0.10360642	0.075869858	0.20198608	0.087276291	0.16525546	0.25802786	0.30965454	0.19111531	0.38415442	0.049823612	0.11174718
8724	43.58	0.15987524	0.044036411	0.11859509	-0.015362748	0.73538037	0.13136794	-0.14787006	0.72878375	0.17174599	-0.26296191	0.70486475	-0.060260059	-0.1142595	0.71791266	-0.23529662	0.0081784201	0.72527942	-0.1859975	0.13752573	1.0497615	-0.038172054	0.087182495	1.1429432	0.098777206	0.083444756	1.1413125	-0.19005058	0.12787737	0.95266089	-0.051380249	0.12449812	1.0010495	-0.15666006	0.30967474	0.48910101	0.050195095	0.29228107	0.5078696	0.18340334	0.221894	0.64167096	0.09750135	0.25887744	0.10345969	0.075738419	0.20204372	0.087213943	0.16513342	0.25825269	0.30955048	0.19096062	0.38427615	0.049735931	0.1117817
8725	43.59	0.15990173	0.043975418	0.11852834	-0.014176168	0.73497729	0.13164075	-0.14601817	0.72995898	0.17188358	-0.26131143	0.70696344	-0.060184303	-0.11238857	0.71887408	-0.23523296	0.010116508	0.7250412	-0.18577692	0.14392259	1.0473108	-0.037933582	0.094736366	1.1412759	0.098934662	0.090984055	1.1395345	-0.18972717	0.13297267	0.95036212	-0.05109618	0.13033739	0.9988006	-0.15629448	0.30986249	0.48884738	0.05002343	0.2927861	0.50774008	0.18322643	0.22264069	0.64166553	0.097301033	0.25892422	0.10330856	0.075594734	0.20212022	0.087156624	0.16500632	0.25851102	0.3094444	0.19080318	0.38441028	0.049650265	0.11181484
8726	43.6	0.1599386	0.043925339	0.11845734	-0.012764633	0.73479016	0.13181314	-0.14407277	0.7311875	0.17201682	-0.25957797	0.70913098	-0.060127243	-0.11043684	0.71987488	-0.23517723	0.012126724	0.72479449	-0.1855434	0.15042056	1.0448092	-0.037690693	0.10243175	1.1395762	0.099083694	0.098629395	1.1377003	-0.18941063	0.13815536	0.94803198	-0.050813728	0.13628084	0.99651025	-0.15593745	0.31009293	0.48860126	0.049848217	0.29334537	0.50761456	0.18305038	0.22342239	0.64167767	0.097105751	0.25899164	0.1031551	0.075440971	0.20221732	0.087104256	0.16487711	0.25880283	0.30933707	0.19064685	0.38455865	0.049566326	0.11184944
8727	43.61	0.15998788	0.043885838	0.11838372	-0.011130181	0.73482257	0.13189925	-0.14203558	0.73246613	0.1721424	-0.25776187	0.71136041	-0.060092361	-0.10840971	0.72091522	-0.2351391	0.014209706	0.72453839	-0.18530731	0.15701909	1.0422542	-0.037436977	0.1102729	1.1378405	0.099219612	0.10637402	1.1358097	-0.18910143	0.14342319	0.94566919	-0.050536537	0.14232222	0.99417731	-0.1555898	0.31037152	0.48836438	0.049673199	0.29394598	0.50748755	0.18288052	0.22422627	0.64169458	0.096921638	0.25908572	0.10300162	0.075279976	0.20233519	0.087056213	0.16474864	0.2591272	0.30922821	0.19049454	0.38472296	0.049482773	0.11188788
8728	43.62	0.16005055	0.04385527	0.11830926	-0.0092997332	0.73504791	0.13194051	-0.13990883	0.73379089	0.17225789	-0.25586357	0.71364728	-0.060079659	-0.10630956	0.72199622	-0.23512384	0.016356089	0.72427094	-0.18507848	0.16371944	1.0396455	-0.037165287	0.11826421	1.1360638	0.099337418	0.11421175	1.133863	-0.18880008	0.14877884	0.94327454	-0.050269604	0.14845267	0.99180194	-0.15525282	0.31070212	0.48813715	0.049501114	0.29457437	0.50735355	0.18272112	0.22504594	0.64170898	0.096753174	0.25920959	0.10285043	0.075115395	0.20247218	0.087011177	0.16462303	0.25948148	0.30911691	0.19034767	0.38490417	0.049397675	0.11193129
8729	43.63	0.16012617	0.043830509	0.11823556	-0.0073096013	0.7354162	0.13197675	-0.13769478	0.73515784	0.17236214	-0.25388411	0.71599078	-0.060086517	-0.10413579	0.72311993	-0.23513136	0.01854776	0.7239906	-0.18486629	0.17052425	1.0369847	-0.03686908	0.12641078	1.1342408	0.099433754	0.12213548	1.1318602	-0.1885052	0.15423071	0.94085095	-0.050018814	0.15466173	0.98938629	-0.15492827	0.31108575	0.48791953	0.049332973	0.29522229	0.5072106	0.1825733	0.22588605	0.64172443	0.09660321	0.25936227	0.10270377	0.074951569	0.20262425	0.086967308	0.16450134	0.25986099	0.30900198	0.19020616	0.38510178	0.049309261	0.11197875
8730	43.64	0.16021277	0.043807434	0.11816379	-0.0052042012	0.73585364	0.13202753	-0.13539603	0.7365636	0.17245526	-0.25182506	0.71839276	-0.060108761	-0.10188612	0.72428986	-0.23515858	0.020769035	0.72369824	-0.18467924	0.17743672	1.0342751	-0.03654425	0.1347182	1.1323677	0.099507889	0.13013748	1.1297992	-0.18821252	0.159789	0.93840302	-0.04979044	0.160939	0.98693585	-0.15461812	0.31151883	0.48771146	0.049167389	0.29588708	0.50706024	0.18243362	0.22675816	0.6417522	0.09647229	0.25953778	0.10256274	0.07479213	0.20278578	0.086922836	0.1643835	0.26025891	0.30888275	0.19006825	0.38531323	0.049217037	0.11202691
8731	43.65	0.16030717	0.043781754	0.11809479	-0.0030268633	0.73628516	0.13209525	-0.13301587	0.73800586	0.17253802	-0.2496881	0.7208576	-0.060141792	-0.099558319	0.72551093	-0.23520218	0.023024632	0.7234007	-0.18452379	0.18445921	1.0315204	-0.036191261	0.14319002	1.1304402	0.099560722	0.13821149	1.1276783	-0.18791579	0.16545999	0.93593555	-0.049590698	0.16727634	0.98445819	-0.15432462	0.31199231	0.48751276	0.049000263	0.29656714	0.50690573	0.18229424	0.22767101	0.64180243	0.096357353	0.25972623	0.10242636	0.074638344	0.20295076	0.08687648	0.16426877	0.26066769	0.30875916	0.18993044	0.38553445	0.049122395	0.11207056
8732	43.66	0.16040544	0.043749554	0.11802909	-0.0008063277	0.7366684	0.13217593	-0.13055809	0.73948425	0.17261076	-0.2474744	0.72338977	-0.060181335	-0.097150986	0.7267879	-0.23525978	0.025338314	0.72310785	-0.18440329	0.19159106	1.0287223	-0.035816429	0.15182375	1.1284535	0.09959211	0.14635419	1.125499	-0.18760826	0.17124463	0.93345209	-0.049425259	0.17367006	0.98196228	-0.15404987	0.31249283	0.48732324	0.048825146	0.29725949	0.50675137	0.18214464	0.22862416	0.64187927	0.096251045	0.25991681	0.10229206	0.074488846	0.20311403	0.086827698	0.16415585	0.26108063	0.3086319	0.18978754	0.38576028	0.04902816	0.11210437
8733	43.67	0.16050366	0.043707809	0.11796702	0.0014512475	0.73701074	0.13226628	-0.12802696	0.74099988	0.17267296	-0.24518401	0.72599261	-0.060223873	-0.094663612	0.72812323	-0.23532906	0.027728634	0.72282642	-0.18431729	0.19882603	1.025881	-0.035430935	0.16060744	1.126403	0.099599121	0.15456511	1.1232682	-0.18728482	0.17714073	0.93095441	-0.049298424	0.18012141	0.97945599	-0.15379491	0.313004	0.48714236	0.048633972	0.29795966	0.5066015	0.18197366	0.22960858	0.64198059	0.096142197	0.2601012	0.10215753	0.074341064	0.20327203	0.086776459	0.16404344	0.26149329	0.30850235	0.18963327	0.38598572	0.048937592	0.11212446
